<?xml version="1.0" encoding="utf-8"?>
<svg baseProfile="full" height="100%" version="1.1" viewBox="0,0,1000,180" width="100%"
  xmlns="http://www.w3.org/2000/svg" xmlns:ev="http://www.w3.org/2001/xml-events"
  xmlns:xlink="http://www.w3.org/1999/xlink">
  <defs />
  <path
    d="M0,0 M448.7238464355469,46.665897369384766 L448.7079772949219,46.706058502197266 L448.63677978515625,47.02073287963867 L448.473388671875,47.83572006225586 L448.20391845703125,49.30189514160156 L447.81512451171875,51.37274169921875 L447.33453369140625,53.895408630371094 L446.78045654296875,56.64900207519531 L446.1901550292969,59.4015007019043 L445.6220397949219,61.975101470947266 L445.13665771484375,64.21566772460938 L444.7491149902344,66.02615356445312 L444.5200500488281,67.29373168945312 L444.45855712890625,67.95451354980469 L444.57586669921875,68.01795959472656 L444.77392578125,67.75727844238281 L444.95770263671875,67.42823028564453 M456.06561279296875,45.417362213134766 L456.142822265625,45.393882751464844 L456.2295227050781,45.5558967590332 L456.2539367675781,46.10554885864258 L456.130615234375,47.2252082824707 L455.8089904785156,48.92725372314453 L455.29083251953125,51.12398147583008 L454.64508056640625,53.64301300048828 L453.940673828125,56.311058044433594 L453.2388000488281,58.98351287841797 L452.6106262207031,61.551883697509766 L452.08148193359375,63.88389587402344 L451.66583251953125,65.81265258789062 L451.3725280761719,67.1807632446289 L451.1635437011719,67.92005920410156 L451.0235595703125,68.1675796508789 L450.94757080078125,68.14892578125 M445.5275573730469,56.306549072265625 L445.693359375,56.336944580078125 L446.1582946777344,56.366363525390625 L447.0167236328125,56.36307907104492 L448.2817687988281,56.269432067871094 L449.82989501953125,56.079044342041016 L451.4424133300781,55.80299758911133 L452.72540283203125,55.53953170776367 L453.50762939453125,55.35872268676758 M456.60638427734375,62.03202438354492 L457.09814453125,61.840023040771484 L457.9517822265625,61.387603759765625 L459.09979248046875,60.62800598144531 L460.3338317871094,59.5875129699707 L461.5372314453125,58.333892822265625 L462.6211242675781,56.95963668823242 L463.5361022949219,55.55533981323242 L464.2055969238281,54.21098709106445 L464.5750732421875,53.046722412109375 L464.6007080078125,52.14372253417969 L464.26483154296875,51.57781982421875 L463.58148193359375,51.40830993652344 L462.61297607421875,51.69424819946289 L461.4368591308594,52.49930191040039 L460.1626892089844,53.860225677490234 L458.90960693359375,55.710697174072266 L457.8099365234375,57.91082763671875 L456.9717712402344,60.23094177246094 L456.50921630859375,62.439849853515625 L456.4900817871094,64.36181640625 L456.92132568359375,65.86637115478516 L457.7520446777344,66.86564636230469 L458.91375732421875,67.31840515136719 L460.3034362792969,67.18460845947266 L461.8246154785156,66.47137451171875 L463.3934326171875,65.24117279052734 L464.9190673828125,63.57963180541992 L466.33746337890625,61.59864807128906 L467.6179504394531,59.42513656616211 L468.74957275390625,57.16617965698242 L469.7120666503906,54.94526290893555 L470.5021667480469,52.90789031982422 L471.09417724609375,51.197967529296875 L471.48944091796875,49.90176010131836 L471.7161865234375,49.0572509765625 L471.8082580566406,48.650856018066406 L471.775634765625,48.69052505493164 L471.60992431640625,49.22039794921875 L471.28302001953125,50.3090705871582 L470.8044128417969,51.93624496459961 L470.21728515625,54.01238250732422 L469.5868225097656,56.38720703125 L468.97039794921875,58.896728515625 L468.4195251464844,61.385475158691406 L467.9802551269531,63.7077522277832 L467.69696044921875,65.70703887939453 L467.57281494140625,67.25669860839844 L467.5953369140625,68.30667114257812 L467.71966552734375,68.87857055664062 L467.9112854003906,69.04393005371094 L468.16162109375,68.84496307373047 L468.48907470703125,68.27909851074219 L468.9216613769531,67.320556640625 L469.4958801269531,65.98800659179688 L470.2395324707031,64.3691635131836 L471.155517578125,62.607635498046875 L472.22735595703125,60.83113479614258 L473.405029296875,59.11749267578125 L474.6399230957031,57.504798889160156 L475.8658447265625,56.0208625793457 L477.0255432128906,54.717891693115234 L478.0653381347656,53.65111541748047 L478.93798828125,52.84340286254883 L479.6044921875,52.273136138916016 L480.05926513671875,51.89094543457031 L480.3141174316406,51.63802719116211 L480.43017578125,51.48552703857422 L480.4599609375,51.40861129760742 L480.4422302246094,51.37760543823242 L480.406005859375,51.36444854736328 L480.3669128417969,51.35932540893555 L480.3201904296875,51.35102081298828 L480.28662109375,51.33406448364258 L480.26025390625,51.30228805541992 L480.2345275878906,51.25016784667969 L480.2115783691406,51.181182861328125 L480.1944580078125,51.116939544677734 L480.1729431152344,51.07172393798828 L480.1519775390625,51.037818908691406 L480.1395568847656,51.0082893371582 L480.1334533691406,50.97929763793945 L480.13824462890625,50.94411087036133 L480.1551513671875,50.906490325927734 L480.1864318847656,50.87306213378906 L480.2339172363281,50.84498596191406 L480.2874755859375,50.80210494995117 L480.3361511230469,50.74481964111328 L480.3756103515625,50.665191650390625 L480.40802001953125,50.57915496826172 L480.4465026855469,50.49610900878906 L480.50189208984375,50.44411849975586 L480.5481262207031,50.39398956298828 L480.58502197265625,50.349388122558594 L480.6006774902344,50.286170959472656 L480.59783935546875,50.2187614440918 L480.5870666503906,50.14337921142578 L480.58648681640625,50.08706283569336 L480.5980224609375,50.04155731201172 L480.63397216796875,50.019752502441406 L480.6713562011719,49.989295959472656 L480.70672607421875,49.9688835144043 L480.735107421875,49.9515495300293 L480.7615051269531,49.94183349609375 L480.78741455078125,49.926185607910156 L480.8118896484375,49.87998580932617 L480.81561279296875,49.7641487121582 L480.80169677734375,49.60774230957031 L480.7822570800781,49.44302749633789 L480.77471923828125,49.32067108154297 L480.7763671875,49.25885009765625 L480.78485107421875,49.235416412353516 L480.8039245605469,49.21770095825195 L480.82427978515625,49.19270324707031 L480.8438720703125,49.15410614013672 L480.8591003417969,49.119384765625 L480.8583068847656,49.09114456176758 L480.8399658203125,49.0688591003418 L480.8418884277344,49.0598030090332 L480.86077880859375,49.06365966796875 L480.89410400390625,49.07508850097656 L480.9320068359375,49.09111404418945 L480.9622802734375,49.101722717285156 L480.973876953125,49.10905838012695 L480.99139404296875,49.11944580078125 L480.9984436035156,49.13432693481445 L481.0,49.15048599243164 L480.9993591308594,49.16624069213867 L481.0020446777344,49.171302795410156 L481.0083312988281,49.16686248779297 L481.0376281738281,49.15208435058594 L481.07513427734375,49.139747619628906 L481.1197509765625,49.12786102294922 L481.167236328125,49.12615203857422 L481.20147705078125,49.120365142822266 L481.20953369140625,49.102054595947266 L481.21356201171875,49.06708526611328 L481.2142333984375,49.031883239746094 L481.2143859863281,48.9871826171875 L481.2240295410156,48.954383850097656 L481.2325744628906,48.9243049621582 L481.2349548339844,48.90192794799805 L481.25018310546875,48.89182662963867 L481.2698974609375,48.89230728149414 L481.28192138671875,48.871856689453125 L481.2879638671875,48.83381652832031 L481.29351806640625,48.77504348754883 L481.30206298828125,48.722389221191406 L481.3245849609375,48.6960563659668 L481.3476867675781,48.68470764160156 L481.3524169921875,48.65473175048828 L481.34332275390625,48.60308074951172 L481.3380432128906,48.54178237915039 L481.343017578125,48.49647521972656 L481.3646545410156,48.48680877685547 L481.3917541503906,48.49971008300781 L481.405029296875,48.51091766357422 L481.40753173828125,48.512062072753906 L481.406005859375,48.50760269165039 L481.3988037109375,48.50353240966797 L481.3964538574219,48.510013580322266 L481.407958984375,48.520973205566406 L481.43048095703125,48.52921676635742 L481.4586486816406,48.526275634765625 L481.4903259277344,48.514915466308594 L481.5157470703125,48.5000114440918 L481.5409851074219,48.49398422241211 L481.5718994140625,48.49872589111328 L481.6043395996094,48.514869689941406 L481.6269226074219,48.53163146972656 L481.6466064453125,48.54804992675781 L481.66412353515625,48.563907623291016 L481.6820373535156,48.58003616333008 L481.7032165527344,48.59947967529297 L481.7245178222656,48.61913299560547 L481.7354736328125,48.627960205078125 L481.7388610839844,48.623756408691406 L481.7296447753906,48.608551025390625 L481.70721435546875,48.58356857299805 L481.68524169921875,48.565738677978516 L481.67803955078125,48.56317138671875 L481.69384765625,48.574066162109375 L481.7339172363281,48.59238052368164 L481.78375244140625,48.60776138305664 L481.82867431640625,48.61072540283203 L481.8551025390625,48.60195541381836 L481.8694763183594,48.595298767089844 L481.8834533691406,48.597991943359375 L481.90478515625,48.61491012573242 L481.9320983886719,48.642601013183594 L481.9643859863281,48.675567626953125 L481.99005126953125,48.70096206665039 L482.0108642578125,48.72077178955078 L482.0292663574219,48.7307243347168 L482.0469665527344,48.733863830566406 L482.0629577636719,48.73146438598633 L482.0804748535156,48.72672653198242 L482.10040283203125,48.71723556518555 L482.121337890625,48.70256805419922 L482.1439208984375,48.6860466003418 L482.1711120605469,48.67768096923828 L482.20379638671875,48.6799430847168 L482.2403564453125,48.69398880004883 L482.2811584472656,48.7120361328125 L482.322509765625,48.723785400390625 L482.3621520996094,48.72991180419922 L482.39825439453125,48.72993850708008 L482.4273681640625,48.72256088256836 L482.4439392089844,48.71217727661133 L482.452392578125,48.69609069824219 L482.4654541015625,48.67975616455078 L482.4945983886719,48.675697326660156 L482.542236328125,48.678470611572266 L482.5998229980469,48.6811408996582 L482.65142822265625,48.678794860839844 L482.68939208984375,48.66286849975586 L482.7187805175781,48.6395263671875 L482.7436828613281,48.62211608886719 L482.7643127441406,48.612125396728516 L482.7804260253906,48.60776138305664 L482.7931213378906,48.61176300048828 L482.8025817871094,48.61609649658203 L482.8265380859375,48.62751388549805 L482.8636779785156,48.64284133911133 L482.9030456542969,48.657073974609375 L482.93426513671875,48.6611213684082 L482.95025634765625,48.66358947753906 L482.949462890625,48.65945816040039 L482.9573669433594,48.67314529418945 L482.98577880859375,48.69906234741211 L483.0320129394531,48.73103713989258 L483.08843994140625,48.7532958984375 L483.1449890136719,48.765052795410156 L483.1922302246094,48.756649017333984 L483.22833251953125,48.74836349487305 L483.2571105957031,48.737510681152344 L483.2702331542969,48.73062515258789 L483.2838439941406,48.72389221191406 L483.31939697265625,48.71934127807617 L483.3819580078125,48.7125244140625 L483.4713134765625,48.711910247802734 L483.5697021484375,48.710594177246094 L483.65545654296875,48.71491241455078 L483.7377624511719,48.72364807128906 L483.82525634765625,48.737510681152344 L483.908203125,48.751129150390625 L483.9839782714844,48.766448974609375 L484.02447509765625,48.76962661743164 L484.0355224609375,48.768211364746094 L484.0350341796875,48.765541076660156 L484.0355529785156,48.76508712768555 L484.036376953125,48.76568603515625 L484.03082275390625,48.763458251953125 L484.0056457519531,48.747779846191406 L483.9888000488281,48.734214782714844 L483.98846435546875,48.722843170166016 L484.0148010253906,48.7153434753418 L484.054931640625,48.70817184448242 L484.09063720703125,48.69056701660156 L484.1145935058594,48.66671371459961 L484.1438903808594,48.65205001831055 L484.173095703125,48.64603042602539 L484.21319580078125,48.6468620300293 L484.2463684082031,48.64210891723633 L484.26953125,48.61870574951172 L484.2850341796875,48.588558197021484 L484.31036376953125,48.566741943359375 L484.3467102050781,48.55935287475586 L484.39813232421875,48.566192626953125 L484.4452209472656,48.57725524902344 L484.4825439453125,48.58015823364258 L484.5074157714844,48.58273696899414 L484.53271484375,48.59510803222656 L484.5591735839844,48.61017608642578 L484.590576171875,48.6243782043457 L484.6165771484375,48.63328170776367 L484.6334228515625,48.63295364379883 M491.5464172363281,46.191429138183594 L491.4143981933594,46.000755310058594 L491.19537353515625,45.698665618896484 L490.8852844238281,45.355838775634766 L490.498779296875,45.09674835205078 L489.99591064453125,45.0 L489.34228515625,45.112831115722656 L488.55084228515625,45.48942565917969 L487.65826416015625,46.19659423828125 L486.7157897949219,47.31122589111328 L485.7834777832031,48.88518142700195 L484.883544921875,50.90463638305664 L484.0631103515625,53.282108306884766 L483.3883056640625,55.857845306396484 L482.9058532714844,58.41817855834961 L482.6788330078125,60.750526428222656 L482.7391662597656,62.67106246948242 L483.0623474121094,64.06263732910156 L483.63232421875,64.89094543457031 L484.4240417480469,65.13579559326172 L485.4094543457031,64.7847900390625 L486.58123779296875,63.847999572753906 L487.90576171875,62.35477066040039 L489.3128356933594,60.397216796875 L490.73394775390625,58.147315979003906 L492.0941467285156,55.801090240478516 L493.3376770019531,53.556861877441406 L494.4400939941406,51.58530807495117 L495.400390625,49.98578643798828 L496.2191467285156,48.772186279296875 L496.93109130859375,47.929134368896484 L497.5435791015625,47.41356658935547 L498.057373046875,47.18929672241211 L498.465087890625,47.23031234741211 L498.7384033203125,47.520545959472656 L498.8267822265625,48.038265228271484 L498.717529296875,48.798763275146484 L498.397216796875,49.8265380859375 L497.89569091796875,51.154666900634766 L497.2680969238281,52.79633712768555 L496.5578308105469,54.749427795410156 L495.7849426269531,56.97111129760742 L494.990966796875,59.38610076904297 L494.23443603515625,61.838348388671875 L493.6109619140625,64.10395812988281 L493.1998291015625,65.95225524902344 L493.0406188964844,67.23873138427734 L493.088623046875,67.91704559326172 L493.2804260253906,68.02599334716797 L493.55523681640625,67.57266235351562 L493.9095153808594,66.50221252441406 L494.369384765625,64.7920913696289 L494.99542236328125,62.536949157714844 L495.80487060546875,59.95747756958008 L496.791748046875,57.34905242919922 L497.9030456542969,54.94854736328125 L499.0919494628906,52.88218688964844 L500.3165588378906,51.20207595825195 L501.56512451171875,49.91900634765625 L502.8111267089844,49.03244400024414 L504.0247497558594,48.542030334472656 L505.1416931152344,48.41822052001953 L506.0863342285156,48.580360412597656 L506.79833984375,48.90069580078125 L507.2434997558594,49.23845291137695 L507.44024658203125,49.48424530029297 L507.46575927734375,49.613197326660156 L507.4189147949219,49.66973114013672 L507.3682861328125,49.693729400634766 L507.3496398925781,49.71112823486328 M508.4307861328125,60.33283615112305 L508.47784423828125,60.354148864746094 L508.5435791015625,60.38547897338867 L508.60540771484375,60.403419494628906 L508.64422607421875,60.40537643432617 L508.630859375,60.43962478637695 L508.50811767578125,60.629207611083984 L508.20465087890625,61.135189056396484 L507.6534118652344,62.126522064208984 L506.83648681640625,63.65472412109375 L505.8213806152344,65.65864562988281 L504.7020568847656,67.95378112792969 L503.5880126953125,70.33412170410156 L502.5888366699219,72.5900650024414 L501.7918395996094,74.56813049316406 L501.2366027832031,76.17759704589844 L500.9398498535156,77.33847045898438 L500.86578369140625,78.0115737915039 L500.95556640625,78.22705078125 L501.1002197265625,78.16380310058594 L501.2265625,78.00261688232422 M519.2251586914062,52.1128044128418 L519.2434692382812,52.04676818847656 L519.2537231445312,52.030296325683594 L519.2293701171875,52.21044158935547 L519.1295776367188,52.791934967041016 L518.9319458007812,53.92498016357422 L518.6265869140625,55.64704132080078 L518.2337646484375,57.840641021728516 L517.8031005859375,60.27214813232422 L517.4223022460938,62.61650085449219 L517.1554565429688,64.59254455566406 L517.0474243164062,66.03752136230469 L517.09814453125,66.91775512695312 L517.2890014648438,67.27401733398438 L517.598876953125,67.14018249511719 L518.0586547851562,66.46134948730469 L518.6924438476562,65.20556640625 L519.5118408203125,63.459224700927734 L520.4755859375,61.43592834472656 L521.5056762695312,59.428428649902344 L522.4873046875,57.68755340576172 L523.3228149414062,56.32563018798828 L523.9591674804688,55.36957931518555 L524.3933715820312,54.77043151855469 L524.6356811523438,54.454002380371094 L524.739501953125,54.40375900268555 L524.7405395507812,54.67304229736328 L524.6477661132812,55.351070404052734 L524.4845581054688,56.52280044555664 L524.3042602539062,58.15442657470703 L524.1415405273438,60.086814880371094 L524.0604248046875,62.081050872802734 L524.10107421875,63.905799865722656 L524.2476196289062,65.37835693359375 L524.4699096679688,66.40868377685547 L524.7388305664062,67.00851440429688 L525.0140380859375,67.2337646484375 L525.2938232421875,67.12319946289062 L525.6057739257812,66.67936706542969 L525.9872436523438,65.86570739746094 L526.4962158203125,64.65707397460938 L527.1751708984375,63.11882019042969 L528.0384521484375,61.3662109375 L529.0623779296875,59.53839111328125 L530.2283325195312,57.75013732910156 L531.4652709960938,56.11894226074219 L532.6900024414062,54.739105224609375 L533.6551513671875,53.7806282043457 L534.248291015625,53.26289367675781 M540.8494873046875,54.97648620605469 L540.7655029296875,54.83699035644531 L540.560302734375,54.58848571777344 L540.1713256835938,54.296546936035156 L539.5647583007812,54.13237380981445 L538.72705078125,54.2887077331543 L537.714599609375,54.95085525512695 L536.6141967773438,56.20586395263672 L535.5450439453125,57.99054718017578 L534.6182250976562,60.118465423583984 L533.9224243164062,62.31006622314453 L533.5098266601562,64.26818084716797 L533.4273071289062,65.78143310546875 L533.67724609375,66.73589324951172 L534.2396240234375,67.09452819824219 L535.0508422851562,66.85599517822266 L536.0142211914062,66.00297546386719 L537.0256958007812,64.56379699707031 L538.006591796875,62.66086196899414 L538.916015625,60.54008865356445 L539.7576293945312,58.49684524536133 L540.5497436523438,56.75297927856445 L541.3345947265625,55.401065826416016 L542.1643676757812,54.42503356933594 L543.0757446289062,53.7501106262207 L544.0935668945312,53.34441375732422 L545.1958618164062,53.20894241333008 L546.3017578125,53.36146926879883 L547.30322265625,53.84648895263672 L548.0844116210938,54.69346237182617 L548.550048828125,55.903167724609375 L548.6722412109375,57.454429626464844 L548.4649047851562,59.274871826171875 L547.98291015625,61.25261688232422 L547.326416015625,63.23102951049805 L546.6227416992188,65.00444030761719 L545.9974365234375,66.4024887084961 L545.5543823242188,67.33606719970703 L545.3312377929688,67.76632690429688 L545.3095703125,67.6746826171875 L545.4634399414062,67.02852630615234 L545.7807006835938,65.7953872680664 L546.263427734375,64.0853271484375 L546.9065551757812,62.133419036865234 L547.7035522460938,60.19244384765625 L548.6278076171875,58.430213928222656 L549.6549072265625,56.9129638671875 L550.7674560546875,55.63280487060547 L551.9420166015625,54.602840423583984 L553.1343994140625,53.856685638427734 L554.302978515625,53.412532806396484 L555.3822631835938,53.23412322998047 L556.334228515625,53.222412109375 L557.1486206054688,53.25537872314453 L557.8289184570312,53.22108840942383 L558.397705078125,53.07185745239258 L558.8646850585938,52.812801361083984 L559.21923828125,52.49945831298828 L559.4703979492188,52.17116928100586 L559.6260986328125,51.868133544921875 L559.708251953125,51.61178207397461 L559.751220703125,51.4195671081543 L559.7730102539062,51.28748321533203 L559.7973022460938,51.2197265625 L559.832275390625,51.19138717651367 L559.8638916015625,51.17570495605469 L559.8972778320312,51.157135009765625 L559.9259643554688,51.120811462402344 L559.9379272460938,51.05986785888672 L559.953125,50.99015426635742 L559.9757080078125,50.93025207519531 L559.995849609375,50.875160217285156 L560.0222778320312,50.83710861206055 L560.0504760742188,50.808292388916016 L560.0715942382812,50.76714324951172 L560.1008911132812,50.702117919921875 L560.1405029296875,50.624759674072266 L560.1841430664062,50.53191375732422 L560.2239990234375,50.44709014892578 L560.2589721679688,50.38622283935547 L560.2850952148438,50.33939743041992 L560.3099975585938,50.30033493041992 L560.330322265625,50.27096176147461 L560.34521484375,50.239173889160156 L560.3554077148438,50.2103157043457 L560.3718872070312,50.180049896240234 L560.3916015625,50.14747619628906 L560.41845703125,50.117462158203125 L560.4437255859375,50.096778869628906 L560.4586791992188,50.07733917236328 L560.4598388671875,50.060062408447266 L560.45849609375,50.031700134277344 L560.4493408203125,50.00105285644531 L560.451171875,49.9760627746582 L560.4672241210938,49.96712875366211 L560.4891357421875,49.957672119140625 L560.5006713867188,49.93718719482422 L560.5051879882812,49.90330505371094 L560.4909057617188,49.86110305786133 L560.4822998046875,49.825130462646484 L560.4861450195312,49.81282424926758 L560.504638671875,49.80781936645508 L560.5275268554688,49.799530029296875 L560.5582885742188,49.78958511352539 L560.5816040039062,49.768775939941406 L560.605224609375,49.7418098449707 L560.62451171875,49.71955108642578 L560.6432495117188,49.69651794433594 L560.6598510742188,49.66794204711914 L560.6862182617188,49.636558532714844 L560.71435546875,49.60271453857422 L560.751953125,49.57145309448242 L560.7911987304688,49.54415512084961 L560.828125,49.5128288269043 L560.8501586914062,49.46513366699219 L560.8623657226562,49.4031867980957 L560.8589477539062,49.34292984008789 L560.8556518554688,49.301631927490234 L560.86328125,49.2862434387207 L560.8858642578125,49.28755187988281 L560.9143676757812,49.287078857421875 L560.9513549804688,49.27911376953125 L560.9778442382812,49.261634826660156 L560.9938354492188,49.24649429321289 L561.0076293945312,49.24326705932617 L561.015625,49.238895416259766 L561.0155029296875,49.21809768676758 L561.0078735351562,49.1767692565918 L560.9876708984375,49.11799621582031 L560.9664306640625,49.067298889160156 L560.943115234375,49.02941131591797 L560.920166015625,48.998390197753906 L560.9013061523438,48.970375061035156 L560.8875732421875,48.94612503051758 L560.8878173828125,48.93428421020508 L560.9097900390625,48.945770263671875 L560.944580078125,48.9664306640625 L560.981201171875,48.98633575439453 L561.0086669921875,48.998573303222656 "
    fill="none" stroke="black" stroke-linecap="round" stroke-width="1" />
  <path
    d="M0,0 M443.2110595703125,109.79212951660156 L443.21356201171875,109.75645446777344 L443.2463073730469,109.87797546386719 L443.2980041503906,110.3436050415039 L443.3365783691406,111.32939147949219 L443.31622314453125,112.8739013671875 L443.1987609863281,114.90010833740234 L442.99462890625,117.25708770751953 L442.7691955566406,119.78589630126953 L442.5706481933594,122.3327407836914 L442.43084716796875,124.77420806884766 L442.3665466308594,127.0035400390625 L442.3446044921875,128.850341796875 L442.33404541015625,130.16177368164062 L442.3192138671875,130.85890197753906 L442.29730224609375,131.07232666015625 L442.2725830078125,131.02003479003906 M438.45135498046875,107.65216827392578 L438.50054931640625,107.60926055908203 L438.76739501953125,107.57792663574219 L439.3939208984375,107.57406616210938 L440.4520263671875,107.57682800292969 L441.8680419921875,107.51121520996094 L443.4900207519531,107.31249237060547 L445.1298828125,106.96176147460938 L446.640380859375,106.4940414428711 L447.9221496582031,105.99859619140625 L448.913818359375,105.5563735961914 L449.61138916015625,105.21522521972656 L450.0223693847656,105.00875854492188 L450.18463134765625,105.0 L450.15753173828125,105.26961517333984 L449.9909973144531,105.97392272949219 L449.70477294921875,107.24212646484375 L449.3356018066406,109.0943374633789 L448.90191650390625,111.4378433227539 L448.4532775878906,114.12041473388672 L448.0335693359375,116.95417785644531 L447.68243408203125,119.79730224609375 L447.42181396484375,122.5037841796875 L447.25146484375,124.88845825195312 L447.15673828125,126.77558898925781 L447.12371826171875,128.08802795410156 L447.13092041015625,128.83358764648438 L447.17132568359375,129.0635986328125 L447.2872009277344,128.7768096923828 L447.5336608886719,127.88175201416016 L447.9799499511719,126.32369995117188 L448.6819763183594,124.22721862792969 L449.65985107421875,121.86724853515625 L450.8592224121094,119.57682037353516 L452.20257568359375,117.62704467773438 L453.56439208984375,116.14920043945312 L454.8200378417969,115.2022933959961 L455.8646240234375,114.84886932373047 L456.6421203613281,115.15292358398438 L457.1250915527344,116.15342712402344 L457.3290100097656,117.82771301269531 L457.2873229980469,120.02922058105469 L457.0606384277344,122.51155853271484 L456.73504638671875,124.96846008300781 L456.4123840332031,127.1003646850586 L456.1694030761719,128.6959228515625 L456.0399169921875,129.6978302001953 L456.0009460449219,130.18670654296875 L456.0050964355469,130.34449768066406 M461.6990051269531,115.43782043457031 L461.7317810058594,115.43028259277344 L461.7635498046875,115.65131378173828 L461.77716064453125,116.3261489868164 L461.7337646484375,117.62268829345703 L461.6156311035156,119.504150390625 L461.4306640625,121.75894927978516 L461.2022705078125,124.09928131103516 L460.9781494140625,126.24451446533203 L460.8207092285156,127.98214721679688 L460.74383544921875,129.21221923828125 L460.7278137207031,129.92079162597656 L460.7423095703125,130.21896362304688 M463.5787658691406,110.04071807861328 L463.6103515625,109.72486877441406 L463.680419921875,109.31169128417969 L463.7556457519531,108.91166687011719 L463.81292724609375,108.66244506835938 L463.8367614746094,108.54473114013672 L463.85772705078125,108.52613830566406 L463.8829650878906,108.53935241699219 L463.921875,108.56751251220703 M472.06768798828125,112.03890228271484 L472.0295104980469,111.88480377197266 L471.8944396972656,111.63356018066406 L471.6087951660156,111.3593978881836 L471.13421630859375,111.2099838256836 L470.4842529296875,111.322998046875 L469.69708251953125,111.79944610595703 L468.878662109375,112.66557312011719 L468.1725769042969,113.8779067993164 L467.74884033203125,115.34459686279297 L467.73583984375,116.95318603515625 L468.1787109375,118.599365234375 L469.0056457519531,120.20813751220703 L470.0816955566406,121.7323989868164 L471.20819091796875,123.15000915527344 L472.2067565917969,124.46016693115234 L472.91204833984375,125.66786193847656 L473.20849609375,126.78229522705078 L473.0549011230469,127.80680847167969 L472.49493408203125,128.72763061523438 L471.6112365722656,129.50521850585938 L470.5402526855469,130.08889770507812 L469.386474609375,130.42230224609375 L468.2467346191406,130.49256896972656 L467.2070007324219,130.28515625 L466.34332275390625,129.84701538085938 L465.7003173828125,129.25381469726562 L465.31402587890625,128.71214294433594 L465.1368103027344,128.34352111816406 M486.4024658203125,115.99575805664062 L486.46282958984375,116.03530883789062 L486.55499267578125,116.24149322509766 L486.65509033203125,116.76882934570312 L486.70458984375,117.74964141845703 L486.6429443359375,119.21825408935547 L486.4492492675781,121.11449432373047 L486.1241455078125,123.27214050292969 L485.7181091308594,125.47171020507812 L485.32916259765625,127.52257537841797 L485.02130126953125,129.2720489501953 L484.80731201171875,130.6433868408203 L484.7234191894531,131.5104217529297 L484.7574462890625,131.78387451171875 L484.8934326171875,131.44223022460938 L485.0664978027344,130.83160400390625 L485.2087097167969,130.26307678222656 M488.8466796875,108.41592407226562 L488.80291748046875,108.37774658203125 L488.7482604980469,108.34928894042969 L488.70068359375,108.33794403076172 L488.6781005859375,108.35113525390625 M497.08050537109375,115.9073715209961 L496.98931884765625,115.62579345703125 L496.7705078125,115.19025421142578 L496.378662109375,114.7054672241211 L495.80853271484375,114.35401153564453 L495.0811767578125,114.24005889892578 L494.2768249511719,114.43953704833984 L493.49365234375,114.9833755493164 L492.8531799316406,115.88642883300781 L492.4743957519531,117.12703704833984 L492.4429931640625,118.64044189453125 L492.781982421875,120.3188705444336 L493.451904296875,122.05152130126953 L494.329833984375,123.74832153320312 L495.26318359375,125.34587097167969 L496.10089111328125,126.78431701660156 L496.73187255859375,128.00540161132812 L497.08563232421875,128.9590606689453 L497.1272277832031,129.6258544921875 L496.84112548828125,130.04222106933594 L496.230712890625,130.26339721679688 L495.33746337890625,130.34214782714844 L494.24700927734375,130.312744140625 L493.0599060058594,130.2218017578125 L491.88421630859375,130.09320068359375 L490.83197021484375,129.9650115966797 L489.98779296875,129.85421752929688 L489.436279296875,129.77835083007812 L489.1641845703125,129.73204040527344 M516.7592163085938,117.06025695800781 L516.6248779296875,116.74402618408203 L516.3992919921875,116.25476837158203 L516.086669921875,115.67351531982422 L515.701171875,115.14813232421875 L515.1988525390625,114.72953796386719 L514.553466796875,114.47825622558594 L513.7432250976562,114.47456359863281 L512.7841796875,114.85404968261719 L511.7229919433594,115.7423324584961 L510.62994384765625,117.22802734375 L509.574462890625,119.27832794189453 L508.6612854003906,121.71382141113281 L507.9798583984375,124.22966766357422 L507.5931396484375,126.49314880371094 L507.532958984375,128.22698974609375 L507.7987060546875,129.30569458007812 L508.33203125,129.68768310546875 L509.0975341796875,129.380615234375 L510.04241943359375,128.37887573242188 L511.112548828125,126.73499298095703 L512.260986328125,124.61210632324219 L513.436279296875,122.29814910888672 L514.5428466796875,120.10823822021484 L515.5025634765625,118.3025131225586 L516.243408203125,116.97919464111328 L516.7269897460938,116.15823364257812 L516.9512329101562,115.85749816894531 L516.9387817382812,116.13255310058594 L516.6995849609375,117.0704574584961 L516.275634765625,118.71459197998047 L515.7337036132812,120.95636749267578 L515.1748657226562,123.58476257324219 L514.7083740234375,126.3073959350586 L514.442138671875,128.82369995117188 L514.4290771484375,130.90557861328125 L514.7432250976562,132.3168182373047 L515.3740844726562,132.91998291015625 L516.2637329101562,132.73983764648438 L517.1034545898438,132.18142700195312 L517.69287109375,131.62283325195312 M532.7379760742188,109.15999603271484 L532.7659912109375,108.8878402709961 L532.7979125976562,108.6405258178711 L532.8112182617188,108.66802978515625 L532.75244140625,109.2679672241211 L532.5816040039062,110.56492614746094 L532.2835083007812,112.53841400146484 L531.8851318359375,115.0417251586914 L531.4443359375,117.8892822265625 L531.0339965820312,120.87320709228516 L530.692138671875,123.79875946044922 L530.4427490234375,126.5086898803711 L530.2860717773438,128.7967529296875 L530.2042236328125,130.4775848388672 L530.1687622070312,131.4464569091797 L530.1578979492188,131.8301239013672 L530.1514892578125,131.862060546875 M527.4408569335938,118.01734161376953 L527.4925537109375,118.02242279052734 L527.709716796875,118.03882598876953 L528.2072143554688,118.04554748535156 L529.0617065429688,118.00541687011719 L530.2567749023438,117.86251831054688 L531.6984252929688,117.59642028808594 L533.2562255859375,117.20574951171875 L534.8041381835938,116.7083740234375 L536.2405395507812,116.13683319091797 L537.4697265625,115.54035186767578 L538.4159545898438,114.96497344970703 L539.0244750976562,114.46527862548828 L539.2850952148438,114.0572509765625 L539.2359008789062,113.72518920898438 L538.954345703125,113.46829223632812 L538.4851684570312,113.2978286743164 L537.8789672851562,113.24325561523438 L537.155029296875,113.36556243896484 L536.3451538085938,113.71074676513672 L535.4930419921875,114.31999969482422 L534.6717529296875,115.22998046875 L533.9172973632812,116.42457580566406 L533.27880859375,117.8479232788086 L532.7767944335938,119.42611694335938 L532.446044921875,121.06083679199219 L532.3195190429688,122.66659545898438 L532.4476928710938,124.14580535888672 L532.8253173828125,125.39390563964844 L533.4365844726562,126.32293701171875 L534.235595703125,126.8862075805664 L535.174560546875,127.06309509277344 L536.2047729492188,126.85859680175781 L537.298828125,126.26963806152344 L538.3983764648438,125.31253051757812 L539.4546508789062,124.03302001953125 L540.4390869140625,122.5276870727539 L541.3511962890625,120.91064453125 L542.228271484375,119.2893295288086 L543.1050415039062,117.7529067993164 L543.9511108398438,116.37804412841797 L544.697509765625,115.22776794433594 L545.2638549804688,114.35064697265625 L545.5985717773438,113.76420593261719 L545.708251953125,113.45330810546875 L545.6211547851562,113.39669799804688 L545.34814453125,113.58618927001953 L544.9086303710938,114.0224380493164 L544.3413696289062,114.69454193115234 L543.721435546875,115.57425689697266 L543.1492919921875,116.622802734375 L542.7101440429688,117.792724609375 L542.471435546875,119.04749298095703 L542.4597778320312,120.34422302246094 L542.673095703125,121.63693237304688 L543.0863037109375,122.87620544433594 L543.6471557617188,124.03455352783203 L544.2440795898438,125.07091522216797 L544.7871704101562,125.96237182617188 L545.1690063476562,126.6818618774414 L545.3106689453125,127.22977447509766 L545.17138671875,127.61369323730469 L544.746337890625,127.87625885009766 L544.047119140625,128.05174255371094 L543.1246337890625,128.135009765625 L542.0716552734375,128.09951782226562 L541.0131225585938,127.9335708618164 L540.1849365234375,127.71733856201172 L539.6893920898438,127.533935546875 M550.7003173828125,106.17549133300781 L550.7351684570312,106.17033386230469 L550.775390625,106.2056884765625 L550.801513671875,106.38562774658203 L550.7696533203125,106.85088348388672 L550.65966796875,107.75444030761719 L550.4656982421875,109.143798828125 L550.1860961914062,110.97331237792969 L549.8195190429688,113.12113189697266 L549.3955688476562,115.45277404785156 L548.9476318359375,117.84921264648438 L548.553955078125,120.2315902709961 L548.2811889648438,122.48160552978516 L548.159423828125,124.44158172607422 L548.160888671875,125.95589447021484 L548.2191772460938,126.90414428710938 L548.271484375,127.34306335449219 M547.0908813476562,118.00665283203125 L547.2267456054688,118.02195739746094 L547.6154174804688,118.00786590576172 L548.3369140625,117.92190551757812 L549.3848266601562,117.7024154663086 L550.6161499023438,117.33228302001953 L551.8547973632812,116.86055755615234 L552.8125,116.4384536743164 L553.377685546875,116.15769958496094 M555.6387329101562,125.4726791381836 L555.6787109375,125.4971694946289 L555.7353515625,125.50218200683594 L555.7938232421875,125.48783874511719 L555.8161010742188,125.4482192993164 L555.795166015625,125.41838073730469 L555.7454833984375,125.39839172363281 L555.6947021484375,125.39722442626953 L555.6607666015625,125.39495086669922 M560.2745971679688,109.87944030761719 L560.3092041015625,109.85980987548828 L560.3565063476562,109.83171081542969 L560.4072265625,109.79421997070312 L560.4371948242188,109.75730895996094 L560.436279296875,109.7640380859375 L560.3629760742188,109.87744140625 L560.1632080078125,110.17827606201172 L559.8023071289062,110.76077270507812 L559.2847290039062,111.64921569824219 L558.66162109375,112.81013488769531 L558.027099609375,114.17739868164062 L557.4655151367188,115.65315246582031 L557.0399169921875,117.14956665039062 L556.7824096679688,118.6080093383789 L556.7144775390625,119.96923828125 L556.8599243164062,121.18116760253906 L557.2495727539062,122.19009399414062 L557.9181518554688,122.92447662353516 L558.8870239257812,123.30230712890625 L560.1351318359375,123.25479888916016 L561.6018676757812,122.76043701171875 L563.1527099609375,121.85548400878906 L564.6356811523438,120.6441650390625 L565.8941040039062,119.25691986083984 L566.8018188476562,117.81151580810547 L567.2884521484375,116.4027099609375 L567.3714599609375,115.1138687133789 L567.0740966796875,114.013427734375 L566.4876098632812,113.19348907470703 L565.6803588867188,112.73442077636719 L564.7222290039062,112.68671417236328 L563.693359375,113.07254028320312 L562.7230224609375,113.87525177001953 L561.9301147460938,115.04264831542969 L561.4537353515625,116.50747680664062 L561.3720703125,118.16695404052734 L561.7271118164062,119.89359283447266 L562.4990234375,121.55272674560547 L563.6358642578125,123.01962280273438 L565.1092529296875,124.15991973876953 L566.8168334960938,124.88385772705078 L568.60693359375,125.16876983642578 L570.0694580078125,125.16236114501953 L570.986328125,125.03685760498047 "
    fill="none" stroke="red" stroke-linecap="round" stroke-width="2" />
</svg>