<svg baseProfile="full" height="100%" version="1.1" viewBox="0,0,1000,180" width="100%"
  xmlns="http://www.w3.org/2000/svg" xmlns:ev="http://www.w3.org/2001/xml-events"
  xmlns:xlink="http://www.w3.org/1999/xlink">
  <defs />
  <rect fill="white" height="180" width="1000" x="0" y="0" />
  <path
    d="M0,0 M452.63885498046875,45.0 L452.6883239746094,45.16925048828125 L452.7235412597656,45.71013259887695 L452.69970703125,46.831321716308594 L452.5865478515625,48.63132858276367 L452.39349365234375,51.053672790527344 L452.1366882324219,53.93584442138672 L451.8160705566406,57.05411148071289 L451.4396057128906,60.188899993896484 L451.0289611816406,63.15363311767578 L450.64703369140625,65.7736587524414 L450.34942626953125,67.9217300415039 L450.1891174316406,69.44503021240234 L450.17376708984375,70.26128387451172 L450.2959899902344,70.3997573852539 L450.460693359375,70.16118621826172 L450.60089111328125,69.83531188964844 M459.3523254394531,46.296348571777344 L459.29071044921875,46.51588821411133 L459.1396789550781,47.157752990722656 L458.8797607421875,48.41100311279297 L458.53411865234375,50.30235290527344 L458.15924072265625,52.69892120361328 L457.7508850097656,55.373008728027344 L457.3024597167969,58.09748840332031 L456.82598876953125,60.702213287353516 L456.3300476074219,63.062339782714844 L455.8818359375,65.04683685302734 L455.5620422363281,66.58392333984375 L455.34906005859375,67.57537841796875 L455.20513916015625,68.0077896118164 L455.0827331542969,67.95124816894531 L454.9652404785156,67.66555786132812 L454.8732604980469,67.36438751220703 M449.1070556640625,57.436954498291016 L449.10797119140625,57.39963150024414 L449.2968444824219,57.31118392944336 L449.81976318359375,57.148765563964844 L450.82769775390625,56.89216995239258 L452.2695617675781,56.54700469970703 L453.9783935546875,56.147518157958984 L455.4554443359375,55.8042106628418 L456.4179992675781,55.5831184387207 M460.4267272949219,60.97383117675781 L460.5778503417969,61.188758850097656 L460.9371032714844,61.4478874206543 L461.5615539550781,61.61131286621094 L462.445068359375,61.48133087158203 L463.5391845703125,60.97397232055664 L464.76324462890625,60.0738410949707 L466.0345764160156,58.85319900512695 L467.25616455078125,57.407291412353516 L468.3360900878906,55.87125778198242 L469.15264892578125,54.36247634887695 L469.62396240234375,52.990013122558594 L469.6900634765625,51.837425231933594 L469.34320068359375,50.988128662109375 L468.6060791015625,50.533145904541016 L467.55755615234375,50.594886779785156 L466.24713134765625,51.276092529296875 L464.8019714355469,52.622955322265625 L463.3579406738281,54.55707931518555 L462.0788879394531,56.88191604614258 L461.10986328125,59.32939910888672 L460.58990478515625,61.64377212524414 L460.5627136230469,63.625972747802734 L461.02618408203125,65.1565933227539 L461.9107360839844,66.15025329589844 L463.1212463378906,66.55326080322266 L464.5345458984375,66.34928131103516 L466.05218505859375,65.57342529296875 L467.5740966796875,64.3219223022461 L469.0157165527344,62.72380065917969 L470.3218994140625,60.893436431884766 L471.49456787109375,58.92593002319336 L472.54302978515625,56.89788818359375 L473.4988708496094,54.8902587890625 L474.3689270019531,53.00224304199219 L475.12847900390625,51.30937576293945 L475.7524719238281,49.86892318725586 L476.2369384765625,48.71151351928711 L476.58721923828125,47.83893585205078 L476.81072998046875,47.239280700683594 L476.90283203125,46.91594314575195 L476.8345947265625,46.86751937866211 L476.5813903808594,47.133544921875 L476.1307373046875,47.775909423828125 L475.5107421875,48.84450912475586 L474.7705383300781,50.341941833496094 L473.9910888671875,52.22347640991211 L473.24822998046875,54.379364013671875 L472.6164245605469,56.67267608642578 L472.1504821777344,58.94906997680664 L471.89532470703125,61.061466217041016 L471.8713073730469,62.88116455078125 L472.07135009765625,64.31917572021484 L472.4556579589844,65.34541320800781 L472.9715270996094,65.97073364257812 L473.56304931640625,66.22870635986328 L474.2114562988281,66.16436004638672 L474.9092712402344,65.79751586914062 L475.6644287109375,65.13550567626953 L476.4872131347656,64.19548797607422 L477.3738098144531,62.97563552856445 L478.30401611328125,61.492252349853516 L479.2724914550781,59.78588104248047 L480.25482177734375,57.903404235839844 L481.2389831542969,55.918670654296875 L482.21990966796875,53.927452087402344 L483.16650390625,52.00975036621094 L484.0270690917969,50.27337646484375 L484.7326965332031,48.81755828857422 L485.21881103515625,47.70106506347656 L485.46319580078125,46.94773864746094 L485.4826354980469,46.566463470458984 L485.2806396484375,46.57083511352539 L484.85980224609375,47.03897476196289 L484.1916809082031,48.050540924072266 L483.3027648925781,49.62619400024414 L482.27935791015625,51.682743072509766 L481.247802734375,54.06582260131836 L480.32275390625,56.59663391113281 L479.5970764160156,59.11855697631836 L479.1044006347656,61.488346099853516 L478.8843078613281,63.57506561279297 L478.9441223144531,65.23538208007812 L479.2612609863281,66.39521026611328 L479.7876892089844,67.05632781982422 L480.466796875,67.27052307128906 L481.2469177246094,67.10530853271484 L482.0943603515625,66.6244888305664 L483.0089416503906,65.7991943359375 L483.9621276855469,64.67681121826172 L484.9122314453125,63.362701416015625 L485.6707763671875,62.22182846069336 L486.1455993652344,61.47328186035156 M492.85986328125,55.7161750793457 L492.841552734375,55.391963958740234 L492.7704162597656,54.899112701416016 L492.5941162109375,54.330810546875 L492.2503356933594,53.866336822509766 L491.6790771484375,53.60206604003906 L490.8642272949219,53.63933563232422 L489.8384704589844,54.0744743347168 L488.6960144042969,55.00217056274414 L487.55670166015625,56.41815948486328 L486.5450439453125,58.22092056274414 L485.7624816894531,60.19632339477539 L485.29107666015625,62.09397506713867 L485.1655578613281,63.68584060668945 L485.39056396484375,64.82838439941406 L485.9139099121094,65.45038604736328 L486.6591796875,65.53267669677734 L487.5599060058594,65.06317138671875 L488.5391540527344,64.062255859375 L489.52935791015625,62.59559631347656 L490.4889221191406,60.83286666870117 L491.3686218261719,58.998905181884766 L492.15289306640625,57.3115348815918 L492.8671569824219,55.91716003417969 L493.5196533203125,54.869422912597656 L494.124755859375,54.144657135009766 L494.683349609375,53.708126068115234 L495.1865234375,53.512977600097656 L495.6458740234375,53.51511764526367 L496.06640625,53.6560173034668 L496.4341735839844,53.86133575439453 L496.73193359375,54.04646682739258 L496.9270935058594,54.14825439453125 L497.0220947265625,54.15181350708008 L497.0535583496094,54.091312408447266 L497.06292724609375,54.014183044433594 L497.07135009765625,53.961273193359375 L497.0874328613281,53.940982818603516 M501.5836181640625,64.98676300048828 L501.6015930175781,65.34944915771484 L501.58709716796875,66.17424774169922 L501.49359130859375,67.55670928955078 L501.2814025878906,69.39775085449219 L500.95458984375,71.49519348144531 L500.5584716796875,73.59732055664062 L500.1521301269531,75.49160766601562 L499.7982177734375,76.97999572753906 L499.53900146484375,77.94941711425781 L499.3883361816406,78.35570526123047 L499.32421875,78.37229919433594 L499.3143310546875,78.22098541259766 M513.4520263671875,55.402164459228516 L513.4689331054688,55.398658752441406 L513.4905395507812,55.54056167602539 L513.4917602539062,56.00126647949219 L513.4494018554688,56.957420349121094 L513.3523559570312,58.47255325317383 L513.2071533203125,60.480628967285156 L513.0538940429688,62.76161193847656 L512.9473876953125,64.9828872680664 L512.9022216796875,66.82604217529297 L512.9236450195312,68.10895538330078 L512.99658203125,68.78717803955078 L513.1295166015625,68.90711212158203 L513.3414306640625,68.46763610839844 L513.665283203125,67.41636657714844 L514.1109619140625,65.76445007324219 L514.6702270507812,63.71371078491211 L515.3272705078125,61.62177276611328 L516.060791015625,59.84992599487305 L516.7957763671875,58.5767707824707 L517.4689331054688,57.81922149658203 L518.0363159179688,57.533172607421875 L518.4617919921875,57.72894287109375 L518.7733154296875,58.489559173583984 L519.0045776367188,59.85006332397461 L519.1632080078125,61.67753219604492 L519.3006591796875,63.69359588623047 L519.4561157226562,65.54749298095703 L519.6377563476562,66.97171783447266 L519.8563842773438,67.86041259765625 L520.083740234375,68.20545959472656 L520.3004150390625,68.00772094726562 L520.5413818359375,67.23812866210938 L520.8429565429688,65.86892700195312 L521.262451171875,64.00215911865234 L521.8275146484375,61.87298583984375 L522.5390625,59.74568557739258 L523.35693359375,57.860416412353516 L524.2071533203125,56.35112762451172 L524.8873291015625,55.34272003173828 L525.31103515625,54.811527252197266 M533.3705444335938,55.21699523925781 L533.2808837890625,55.051422119140625 L533.082275390625,54.819374084472656 L532.7296142578125,54.62451171875 L532.178955078125,54.636077880859375 L531.3992919921875,55.00217819213867 L530.4052734375,55.84788513183594 L529.288818359375,57.23263931274414 L528.1887817382812,59.11528396606445 L527.2680053710938,61.33271789550781 L526.6524658203125,63.611854553222656 L526.4130859375,65.66184997558594 L526.536865234375,67.24641418457031 L526.9771728515625,68.24331665039062 L527.6611938476562,68.61966705322266 L528.50634765625,68.37065124511719 L529.4696655273438,67.49760437011719 L530.4989624023438,66.03633880615234 L531.5301513671875,64.10948944091797 L532.509765625,61.95021438598633 L533.3878784179688,59.845245361328125 L534.1226196289062,58.04205322265625 L534.7337036132812,56.678077697753906 L535.2581787109375,55.76494598388672 L535.7201538085938,55.24833679199219 L536.1273193359375,55.078712463378906 L536.4573974609375,55.264129638671875 L536.674072265625,55.860076904296875 L536.7423706054688,56.91120147705078 L536.6744384765625,58.39965057373047 L536.4840087890625,60.21897888183594 L536.2210083007812,62.18744659423828 L535.9397583007812,64.08206176757812 L535.7027587890625,65.68267059326172 L535.533935546875,66.85931396484375 L535.4484252929688,67.58881378173828 L535.4292602539062,67.90100860595703 L535.47412109375,67.82482147216797 L535.5795288085938,67.31884765625 L535.7921752929688,66.32060241699219 L536.1505126953125,64.8634262084961 L536.6961059570312,63.104103088378906 L537.4248046875,61.24992752075195 L538.3224487304688,59.49983215332031 L539.3375244140625,57.95424270629883 L540.4314575195312,56.6402702331543 L541.5616455078125,55.54475784301758 L542.704833984375,54.655609130859375 L543.7997436523438,53.92314910888672 L544.8167114257812,53.294708251953125 L545.7329711914062,52.69031524658203 L546.5586547851562,52.042755126953125 L547.29931640625,51.28167724609375 L547.9486694335938,50.39269256591797 L548.4591674804688,49.40492248535156 L548.7937622070312,48.411590576171875 L548.9422607421875,47.52790451049805 L548.92041015625,46.880619049072266 L548.7242431640625,46.55366134643555 L548.3356323242188,46.62888717651367 L547.7299194335938,47.199806213378906 L546.9133911132812,48.35483169555664 L545.94580078125,50.13349533081055 L544.9161376953125,52.478302001953125 L543.931640625,55.238033294677734 L543.0880126953125,58.175296783447266 L542.4592895507812,61.036895751953125 L542.104248046875,63.600528717041016 L542.099609375,65.67973327636719 L542.4586181640625,67.15629577636719 L543.135498046875,68.03489685058594 L543.8389892578125,68.42993927001953 L544.3547973632812,68.52761840820312 M554.5115966796875,58.86478042602539 L554.5616455078125,58.48524856567383 L554.5942993164062,57.8892707824707 L554.556396484375,57.17717742919922 L554.3860473632812,56.531436920166016 L554.0469360351562,56.022499084472656 L553.5232543945312,55.7256965637207 L552.8008422851562,55.717445373535156 L551.868408203125,56.107425689697266 L550.7540283203125,56.990989685058594 L549.5362548828125,58.395023345947266 L548.3448486328125,60.225624084472656 L547.3505859375,62.2806396484375 L546.694580078125,64.2875747680664 L546.4578247070312,65.9888916015625 L546.6454467773438,67.20166778564453 L547.2083129882812,67.83839416503906 L548.0745849609375,67.8602523803711 L549.1853637695312,67.26429748535156 L550.4623413085938,66.06977081298828 L551.8124389648438,64.3421401977539 L553.1312255859375,62.19930648803711 L554.3162841796875,59.79392623901367 L555.31982421875,57.28615951538086 L556.16455078125,54.854820251464844 L556.8790283203125,52.660892486572266 L557.4901733398438,50.84261703491211 L557.9970703125,49.480587005615234 L558.3491821289062,48.57746124267578 L558.5128173828125,48.12598419189453 L558.4797973632812,48.185272216796875 L558.23681640625,48.848289489746094 L557.800537109375,50.201385498046875 L557.2282104492188,52.21992874145508 L556.5825805664062,54.71564483642578 L555.9548950195312,57.40883255004883 L555.4376831054688,60.042518615722656 L555.0865478515625,62.41690444946289 L554.919921875,64.4150619506836 L554.9307861328125,65.99281311035156 L555.0818481445312,67.10777282714844 L555.3268432617188,67.75263977050781 L555.6179809570312,67.98477172851562 L555.8681030273438,67.96790313720703 L556.0302734375,67.8592529296875 M563.9658203125,45.267852783203125 L563.9713745117188,45.29520034790039 L563.9415283203125,45.424278259277344 L563.8308715820312,45.752227783203125 L563.6187744140625,46.35556411743164 L563.3082275390625,47.25128936767578 L562.9296264648438,48.393394470214844 L562.5262451171875,49.68951416015625 L562.1273193359375,51.036521911621094 L561.7560424804688,52.35444259643555 L561.4514770507812,53.58000564575195 L561.2186279296875,54.65353775024414 L561.082763671875,55.55335235595703 L561.0432739257812,56.27873992919922 L561.1062622070312,56.84912109375 L561.2119140625,57.238197326660156 L561.3145751953125,57.45937728881836 M559.2413330078125,69.92078399658203 L559.338134765625,69.8892822265625 L559.5271606445312,69.7457275390625 L559.7689208984375,69.46780395507812 L560.0057373046875,69.07088470458984 L560.187255859375,68.63406372070312 L560.3157958984375,68.22054290771484 L560.3948974609375,67.91339874267578 L560.4467163085938,67.7286376953125 "
    fill="none" stroke="black" stroke-linecap="round" stroke-width="1" />
  <path
    d="M0,0 M446.40142822265625,112.45928955078125 L446.24310302734375,113.19902801513672 L445.9725341796875,114.6176986694336 L445.610595703125,116.69914245605469 L445.2182922363281,119.18807220458984 L444.8196105957031,121.88874053955078 L444.4331970214844,124.58628845214844 L444.07928466796875,127.11807250976562 L443.8001403808594,129.31065368652344 L443.625244140625,130.99765014648438 L443.5626220703125,132.08560180664062 L443.5715637207031,132.6282501220703 L443.6039123535156,132.79307556152344 M440.6347351074219,109.90914916992188 L440.9573669433594,109.83552551269531 L441.6954650878906,109.63622283935547 L442.92529296875,109.25952911376953 L444.5633850097656,108.68385314941406 L446.4518737792969,107.9356918334961 L448.391845703125,107.09705352783203 L450.2180480957031,106.29129028320312 L451.80596923828125,105.62239074707031 L453.0830993652344,105.1724853515625 L454.0123291015625,105.0 L454.58001708984375,105.17790222167969 L454.7901611328125,105.81014251708984 L454.6741027832031,107.00655364990234 L454.2629699707031,108.79338836669922 L453.62884521484375,111.10453796386719 L452.8694152832031,113.8067398071289 L452.0735778808594,116.73585510253906 L451.34619140625,119.74090576171875 L450.77044677734375,122.6390151977539 L450.3909606933594,125.20602416992188 L450.2130432128906,127.24073028564453 L450.21112060546875,128.6468505859375 L450.3019714355469,129.45611572265625 L450.4342346191406,129.76380920410156 L450.58746337890625,129.5873565673828 L450.79486083984375,128.86802673339844 L451.1215515136719,127.55315399169922 L451.6510314941406,125.72755432128906 L452.4042663574219,123.64533233642578 L453.36663818359375,121.61183166503906 L454.4891052246094,119.86097717285156 L455.6904296875,118.50748443603516 L456.8816223144531,117.57955169677734 L457.9877624511719,117.0817642211914 L458.92340087890625,117.04724884033203 L459.6100769042969,117.53263092041016 L460.01239013671875,118.5855484008789 L460.1198425292969,120.18561553955078 L459.97027587890625,122.2265853881836 L459.65191650390625,124.5067367553711 L459.27069091796875,126.76668548583984 L458.9147033691406,128.77133178710938 L458.65167236328125,130.36875915527344 L458.5241394042969,131.38516235351562 L458.5356750488281,131.74266052246094 L458.67010498046875,131.47019958496094 L458.84130859375,130.91543579101562 L458.9791259765625,130.39300537109375 M465.0002136230469,117.83960723876953 L465.035888671875,117.9175033569336 L465.0511474609375,118.28591918945312 L465.0014343261719,119.12676239013672 L464.85174560546875,120.51505279541016 L464.6042785644531,122.354248046875 L464.283203125,124.46711730957031 L463.9325866699219,126.64886474609375 L463.61761474609375,128.69964599609375 L463.3966979980469,130.43280029296875 L463.3109130859375,131.7021484375 L463.3224182128906,132.4449462890625 L463.37127685546875,132.7566375732422 M466.065673828125,114.38385009765625 L466.14764404296875,113.87640380859375 L466.3005065917969,113.1094970703125 L466.4912109375,112.22228240966797 L466.6856994628906,111.4334716796875 L466.8590087890625,110.78363037109375 L467.0038146972656,110.28273010253906 L467.1048278808594,109.93553924560547 L467.1707763671875,109.74736022949219 M473.34112548828125,114.18467712402344 L473.37957763671875,114.11334228515625 L473.3387451171875,114.008544921875 L473.11810302734375,113.93460083007812 L472.6331787109375,113.99916076660156 L471.8989562988281,114.3000717163086 L471.0169372558594,114.89383697509766 L470.1437683105469,115.77112579345703 L469.45001220703125,116.87516784667969 L469.085693359375,118.12970733642578 L469.14923095703125,119.46150207519531 L469.641357421875,120.81182861328125 L470.4871826171875,122.14824676513672 L471.501708984375,123.45800018310547 L472.47601318359375,124.7491683959961 L473.2154541015625,126.0279769897461 L473.6007080078125,127.2984619140625 L473.5567626953125,128.53358459472656 L473.12274169921875,129.701171875 L472.3453063964844,130.7508544921875 L471.3438720703125,131.637939453125 L470.26641845703125,132.32872009277344 L469.2655029296875,132.8060760498047 L468.42047119140625,133.07138061523438 L467.81207275390625,133.12220764160156 L467.43218994140625,132.97056579589844 L467.26336669921875,132.65609741210938 L467.232666015625,132.3256072998047 L467.26904296875,132.0791015625 M489.82415771484375,117.25647735595703 L489.8421936035156,117.17829895019531 L489.8685302734375,117.06498718261719 L489.8802185058594,116.98275756835938 L489.8438415527344,117.07637023925781 L489.71624755859375,117.50469970703125 L489.46875,118.4229965209961 L489.138671875,119.87755584716797 L488.77813720703125,121.7895736694336 L488.45147705078125,123.9826431274414 L488.2257080078125,126.25800323486328 L488.1194763183594,128.42669677734375 L488.1280212402344,130.3404083251953 L488.2178039550781,131.8653564453125 L488.3375244140625,132.92137145996094 L488.4325866699219,133.50767517089844 L488.48614501953125,133.74034118652344 M490.3758850097656,112.71798706054688 L490.40020751953125,112.6751480102539 L490.4470520019531,112.59930419921875 L490.50604248046875,112.49749755859375 L490.5718688964844,112.40388488769531 L490.6319885253906,112.3408432006836 L490.6778259277344,112.32998657226562 L490.70770263671875,112.35293579101562 L490.72381591796875,112.38532257080078 M500.5987548828125,114.36006164550781 L500.4685974121094,114.10514068603516 L500.19818115234375,113.7407455444336 L499.7655029296875,113.38142395019531 L499.1885986328125,113.20904541015625 L498.4932556152344,113.32041931152344 L497.71826171875,113.79075622558594 L496.93798828125,114.63444519042969 L496.2657775878906,115.83723449707031 L495.81390380859375,117.32080841064453 L495.670166015625,118.97161102294922 L495.87384033203125,120.66075134277344 L496.3772277832031,122.2821044921875 L497.0968017578125,123.77066040039062 L497.91748046875,125.10639190673828 L498.6875915527344,126.27897644042969 L499.2558288574219,127.29857635498047 L499.5183410644531,128.18594360351562 L499.40576171875,128.9674835205078 L498.9372253417969,129.68223571777344 L498.1796875,130.33120727539062 L497.2149658203125,130.8785400390625 L496.1252746582031,131.2657470703125 L495.0075988769531,131.46429443359375 L493.946044921875,131.43101501464844 L493.0380859375,131.1802520751953 L492.35711669921875,130.74705505371094 L491.9422912597656,130.30810546875 L491.7529296875,129.98358154296875 M520.232177734375,117.73222351074219 L520.189208984375,117.32637786865234 L520.100830078125,116.72981262207031 L519.94677734375,116.08727264404297 L519.6921997070312,115.62846374511719 L519.2842407226562,115.44404602050781 L518.66162109375,115.61235809326172 L517.79638671875,116.18791961669922 L516.7329711914062,117.26025390625 L515.5824584960938,118.86858367919922 L514.4778442382812,120.95729064941406 L513.570068359375,123.35094451904297 L512.9588012695312,125.7750015258789 L512.6865234375,127.92436218261719 L512.744873046875,129.56204223632812 L513.0996704101562,130.5626678466797 L513.6953735351562,130.8896026611328 L514.513916015625,130.5474853515625 L515.52099609375,129.54574584960938 L516.6671752929688,127.92987823486328 L517.8704223632812,125.82511901855469 L519.0318603515625,123.4519271850586 L520.0517578125,121.09085845947266 L520.8654174804688,119.00762939453125 L521.4478759765625,117.37088012695312 L521.8048095703125,116.25055694580078 L521.94970703125,115.68171691894531 L521.89501953125,115.69282531738281 L521.651611328125,116.36451721191406 L521.2525634765625,117.76172637939453 L520.7816162109375,119.80765533447266 L520.3403930664062,122.27484893798828 L520.0330200195312,124.86259460449219 L519.9425659179688,127.25196075439453 L520.0858154296875,129.23593139648438 L520.4418334960938,130.70230102539062 L520.9844970703125,131.4964599609375 L521.6517333984375,131.55882263183594 L522.3739013671875,130.92909240722656 L522.9786987304688,130.0535430908203 L523.364013671875,129.3218231201172 M538.1118774414062,108.81536865234375 L538.117919921875,108.6556396484375 L538.09228515625,108.56311798095703 L538.0078735351562,108.7461929321289 L537.830322265625,109.44677734375 L537.553466796875,110.7701416015625 L537.1883544921875,112.70358276367188 L536.7469482421875,115.123779296875 L536.2900390625,117.87226104736328 L535.874755859375,120.74236297607422 L535.5294799804688,123.52696228027344 L535.2808837890625,126.0372085571289 L535.1212158203125,128.05157470703125 L535.0203247070312,129.3994598388672 L534.9728393554688,130.0280303955078 L534.95751953125,130.14073181152344 L534.9523315429688,130.00868225097656 M532.8352661132812,118.21961212158203 L532.920654296875,118.22270965576172 L533.1993408203125,118.2488021850586 L533.7881469726562,118.28937530517578 L534.7471313476562,118.30108642578125 L536.0757446289062,118.21235656738281 L537.70556640625,117.97750091552734 L539.5245971679688,117.5948257446289 L541.38134765625,117.09374237060547 L543.1373291015625,116.50685119628906 L544.6471557617188,115.85821533203125 L545.806640625,115.16886901855469 L546.5594482421875,114.47335052490234 L546.8968505859375,113.8167724609375 L546.8361206054688,113.24988555908203 L546.44287109375,112.82080841064453 L545.7544555664062,112.60729217529297 L544.7949829101562,112.70634460449219 L543.6134033203125,113.2209701538086 L542.2843627929688,114.21734619140625 L540.916748046875,115.7041244506836 L539.6553955078125,117.60143280029297 L538.6279296875,119.77051544189453 L537.9295654296875,122.02045440673828 L537.7007446289062,124.13941192626953 L537.9896850585938,125.92292785644531 L538.7534790039062,127.24105834960938 L539.6124877929688,128.0301513671875 L540.2721557617188,128.3829345703125 M553.264404296875,114.40681457519531 L553.1820068359375,114.04341125488281 L552.9396362304688,113.5625991821289 L552.4765014648438,113.13932800292969 L551.7713623046875,112.99955749511719 L550.8902587890625,113.2193603515625 L549.9263916015625,113.80347442626953 L549.0056762695312,114.68282318115234 L548.2838745117188,115.80229187011719 L547.9090576171875,117.08230590820312 L547.9707641601562,118.43589782714844 L548.491943359375,119.81293487548828 L549.380859375,121.18350219726562 L550.4700317382812,122.5407485961914 L551.5477294921875,123.89069366455078 L552.41455078125,125.23123168945312 L552.9121704101562,126.53034973144531 L552.948974609375,127.74019622802734 L552.5266723632812,128.80917358398438 L551.7078857421875,129.703125 L550.5939331054688,130.33828735351562 L549.3548583984375,130.65817260742188 L548.1635131835938,130.63478088378906 L547.2647094726562,130.42431640625 L546.7528686523438,130.18701171875 M559.0457153320312,108.94525146484375 L559.0127563476562,109.08013153076172 L558.9476318359375,109.47101593017578 L558.8390502929688,110.23577880859375 L558.6707153320312,111.41404724121094 L558.4200439453125,112.96979522705078 L558.0703735351562,114.82180786132812 L557.6490478515625,116.88084411621094 L557.2196655273438,119.06056213378906 L556.8527221679688,121.26551818847656 L556.5912475585938,123.38838195800781 L556.4362182617188,125.32553100585938 L556.34765625,126.95771789550781 L556.2869262695312,128.1919403076172 L556.2344970703125,128.98898315429688 L556.1918334960938,129.3907470703125 L556.1644897460938,129.52044677734375 M555.3621215820312,118.05025482177734 L555.6034545898438,117.88648223876953 L556.15087890625,117.59049987792969 L557.0598754882812,117.17739868164062 L558.289306640625,116.70980834960938 L559.7341918945312,116.22174072265625 L561.2672729492188,115.7577896118164 L562.7562255859375,115.34405517578125 L564.0784301757812,115.02444458007812 L565.12744140625,114.83325958251953 L565.8587036132812,114.7791748046875 L566.2677001953125,114.80770874023438 L566.435546875,114.8647689819336 M561.65478515625,127.55433654785156 L561.73388671875,127.65210723876953 L561.850830078125,127.76301574707031 L561.9764404296875,127.8387680053711 L562.0653686523438,127.83323669433594 L562.1058349609375,127.76686096191406 L562.123779296875,127.68612670898438 L562.1531372070312,127.63542938232422 L562.2045288085938,127.62493133544922 L562.2789306640625,127.64144897460938 L562.34375,127.6677474975586 L562.3644409179688,127.68925476074219 L562.3279418945312,127.70066833496094 L562.2557373046875,127.70533752441406 L562.1817016601562,127.69673919677734 L562.13720703125,127.67839050292969 L562.1242065429688,127.65926361083984 "
    fill="none" stroke="red" stroke-linecap="round" stroke-width="2" />
</svg>